<?xml version="1.0" encoding="iso-8859-1"?>
<!-- Generator: Adobe Illustrator 19.0.0, SVG Export Plug-In . SVG Version: 6.00 Build 0)  -->
<svg version="1.1" id="Layer_1" xmlns="http://www.w3.org/2000/svg" width="50" height="50" x="0px" y="0px"
	 viewBox="0 0 512 512" style="enable-background:new 0 0 512 512;" xml:space="preserve">
<path style="fill:#DDDDDD;" d="M112.208,205.088c1.408,5.088,3.088,10.096,4.976,14.896l4.512,10.208L256,478.384l134.496-248.56
	l4.256-9.664c1.824-4.56,3.584-9.808,5.04-15.072c3.584-12.944,5.408-26.368,5.408-39.888C405.2,82.928,338.272,16,256,16
	S106.8,82.928,106.8,165.2C106.8,178.72,108.624,192.144,112.208,205.088z M256,52.16c61.6,0,111.536,49.936,111.536,111.536
	S317.6,275.232,256,275.232s-111.536-49.936-111.536-111.536S194.4,52.16,256,52.16z"/>
<path style="fill:#8AD5DD;" d="M256,259.232c52.672,0,95.536-42.864,95.536-95.536S308.688,68.16,256,68.16
	c-52.672,0-95.536,42.848-95.536,95.536C160.464,216.368,203.328,259.232,256,259.232z M256,90.608
	c40.368,0,73.088,32.72,73.088,73.088s-32.72,73.088-73.088,73.088s-73.088-32.72-73.088-73.088S215.632,90.608,256,90.608z"/>
<path d="M96.784,209.36c1.552,5.632,3.392,11.136,5.52,16.512l5.008,11.376L256,512l148.88-275.136l4.512-10.256
	c2.24-5.6,4.192-11.36,5.824-17.248c3.888-14.064,5.984-28.864,5.984-44.16C421.2,73.952,347.232,0,256,0S90.8,73.952,90.8,165.2
	C90.8,180.496,92.896,195.296,96.784,209.36z M256,16c82.272,0,149.2,66.928,149.2,149.2c0,13.52-1.824,26.944-5.408,39.888
	c-1.456,5.264-3.232,10.496-5.04,15.072l-4.256,9.664L256,478.384L121.696,230.208L117.184,220c-1.904-4.8-3.568-9.824-4.976-14.896
	c-3.584-12.944-5.408-26.368-5.408-39.888C106.8,82.928,173.728,16,256,16z"/>
<path d="M256,275.232c61.6,0,111.536-49.936,111.536-111.536S317.6,52.16,256,52.16s-111.536,49.936-111.536,111.536
	S194.4,275.232,256,275.232z M256,68.16c52.672,0,95.536,42.848,95.536,95.536c0,52.672-42.848,95.536-95.536,95.536
	c-52.672,0-95.536-42.864-95.536-95.536S203.328,68.16,256,68.16z"/>
<path d="M256,236.784c40.368,0,73.088-32.72,73.088-73.088S296.368,90.608,256,90.608s-73.088,32.72-73.088,73.088
	S215.632,236.784,256,236.784z M256,106.608c31.472,0,57.088,25.616,57.088,57.088S287.472,220.784,256,220.784
	s-57.088-25.616-57.088-57.088S224.528,106.608,256,106.608z"/>
<circle style="fill:#FFFFFF;" cx="256" cy="163.696" r="57.088"/>
<g>
</g>
<g>
</g>
<g>
</g>
<g>
</g>
<g>
</g>
<g>
</g>
<g>
</g>
<g>
</g>
<g>
</g>
<g>
</g>
<g>
</g>
<g>
</g>
<g>
</g>
<g>
</g>
<g>
</g>
</svg>
