<?xml version="1.0" encoding="iso-8859-1"?>
<!-- Generator: Adobe Illustrator 19.0.0, SVG Export Plug-In . SVG Version: 6.00 Build 0)  -->
<svg version="1.1" id="Layer_1" xmlns="http://www.w3.org/2000/svg" width="50" height="50" x="0px" y="0px"
	 viewBox="0 0 512 512" style="enable-background:new 0 0 512 512;" xml:space="preserve">
<g>
	<path style="fill:#DDDDDD;" d="M256,90.608c37.632,0,68.256,28.544,72.288,65.088h76.432C399.776,77.856,335.056,16,256,16
		S112.224,77.856,107.296,155.696h76.432C187.744,119.152,218.368,90.608,256,90.608z"/>
	<path style="fill:#DDDDDD;" d="M256,236.784c-37.632,0-68.256-28.544-72.288-65.088h-76.48c0.496,11.312,1.952,22.528,4.96,33.392
		c1.408,5.088,3.088,10.096,4.976,14.896l4.512,10.208L256,478.384l134.496-248.56l4.256-9.664c1.824-4.56,3.584-9.808,5.04-15.072
		c3.008-10.864,4.48-22.08,4.96-33.392h-76.48C324.256,208.24,293.632,236.784,256,236.784z"/>
</g>
<path d="M102.304,225.872l5.008,11.376L256,512l148.88-275.136l4.512-10.256c2.24-5.6,4.192-11.36,5.824-17.248
	c3.888-14.064,5.984-28.864,5.984-44.16C421.2,73.952,347.232,0,256,0S90.8,73.952,90.8,165.2c0,15.296,2.08,30.112,5.984,44.16
	C98.352,214.992,100.192,220.496,102.304,225.872z M256,16c79.056,0,143.776,61.856,148.704,139.696h-76.432
	c-4.016-36.544-34.64-65.088-72.272-65.088s-68.256,28.544-72.288,65.088h-76.416C112.224,77.856,176.944,16,256,16z
	 M313.088,163.696c0,31.472-25.616,57.088-57.088,57.088s-57.088-25.616-57.088-57.088s25.616-57.088,57.088-57.088
	S313.088,132.224,313.088,163.696z M183.712,171.696c4.032,36.544,34.656,65.088,72.288,65.088s68.256-28.544,72.288-65.088h76.48
	c-0.496,11.312-1.952,22.528-4.96,33.392c-1.456,5.264-3.232,10.496-5.04,15.072l-4.256,9.664L256,478.384L121.696,230.208
	L117.184,220c-1.904-4.8-3.568-9.808-4.976-14.896c-3.008-10.864-4.464-22.08-4.96-33.392h76.464V171.696z"/>
<circle style="fill:#FFFFFF;" cx="256" cy="163.696" r="57.088"/>
<g>
</g>
<g>
</g>
<g>
</g>
<g>
</g>
<g>
</g>
<g>
</g>
<g>
</g>
<g>
</g>
<g>
</g>
<g>
</g>
<g>
</g>
<g>
</g>
<g>
</g>
<g>
</g>
<g>
</g>
</svg>
