<svg xmlns="http://www.w3.org/2000/svg" width="40" height="40" viewBox="28 22 44 57"><defs><style>.cls-1{fill:#71d0b6;}.cls-2{fill:#f8f3e6;}</style></defs><title>icn-map-travel</title><g><path class="cls-1" d="M50,77.15c-3.53-3.09-20.15-18.4-20.15-33.28a20.16,20.16,0,0,1,40.33,0C70.17,57.8,53.49,73.92,50,77.15Z"/><path class="cls-2" d="M50,24.71A19.19,19.19,0,0,1,69.17,43.87c0,12.8-14.72,27.69-19.2,31.93-4.51-4-19.13-18.23-19.13-31.93A19.19,19.19,0,0,1,50,24.71m0-2A21.16,21.16,0,0,0,28.84,43.87C28.84,61.11,50,78.48,50,78.48S71.17,60,71.17,43.87A21.16,21.16,0,0,0,50,22.71Z"/></g></svg>