<?xml version="1.0" encoding="iso-8859-1"?>
<!-- Generator: Adobe Illustrator 19.0.0, SVG Export Plug-In . SVG Version: 6.00 Build 0)  -->
<svg xmlns="http://www.w3.org/2000/svg" width="50" height="50" viewBox="0 0 512 512">
<path style="fill:#303C42;" d="M256,0C138.375,0,42.667,95.698,42.667,213.333c0,57.26,22.417,111.042,63.042,151.354  l142.708,144.146c2,2.031,4.729,3.167,7.583,3.167c2.854,0,5.583-1.135,7.583-3.167L406.229,364.76  c40.688-40.385,63.104-94.167,63.104-151.427C469.333,95.698,373.625,0,256,0z"/>
<path style="fill:#FF8A65;" d="M391.125,349.688L256,486.177L120.813,349.615C84.167,313.26,64,264.865,64,213.333  c0-105.865,86.125-192,192-192s192,86.135,192,192C448,264.865,427.833,313.26,391.125,349.688z"/>
<circle style="fill:#303C42;" cx="256" cy="213.333" r="106.667"/>
<circle style="fill:#FFFFFF;" cx="256" cy="213.333" r="85.333"/>
<linearGradient id="SVGID_1_" gradientUnits="userSpaceOnUse" x1="-37.5239" y1="639.3179" x2="-32.9966" y2="634.7905" gradientTransform="matrix(21.3333 0 0 -21.3333 996.3334 13791.667)">
	<stop offset="0" style="stop-color:#000000;stop-opacity:0.1"/>
	<stop offset="1" style="stop-color:#000000;stop-opacity:0"/>
</linearGradient>
<path style="fill:url(#SVGID_1_);" d="M190.65,257.35c0-47.052,38.271-85.333,85.333-85.333c25.71,0,48.52,11.663,64.176,29.699  C334.427,160.193,299.083,128,256,128c-47.063,0-85.333,38.281-85.333,85.333c0,21.349,8.154,40.654,21.158,55.634  C191.296,265.133,190.65,261.328,190.65,257.35z"/>
<linearGradient id="SVGID_2_" gradientUnits="userSpaceOnUse" x1="-44.3431" y1="639.4727" x2="-26.2147" y2="631.0154" gradientTransform="matrix(21.3333 0 0 -21.3333 996.3334 13791.667)">
	<stop offset="0" style="stop-color:#FFFFFF;stop-opacity:0.2"/>
	<stop offset="1" style="stop-color:#FFFFFF;stop-opacity:0"/>
</linearGradient>
<path style="fill:url(#SVGID_2_);" d="M256,0C138.375,0,42.667,95.698,42.667,213.333c0,57.26,22.417,111.042,63.042,151.354  l142.708,144.146c2,2.031,4.729,3.167,7.583,3.167c2.854,0,5.583-1.135,7.583-3.167L406.229,364.76  c40.688-40.385,63.104-94.167,63.104-151.427C469.333,95.698,373.625,0,256,0z"/>
<g>
</g>
<g>
</g>
<g>
</g>
<g>
</g>
<g>
</g>
<g>
</g>
<g>
</g>
<g>
</g>
<g>
</g>
<g>
</g>
<g>
</g>
<g>
</g>
<g>
</g>
<g>
</g>
<g>
</g>
</svg>
