<?xml version="1.0" encoding="iso-8859-1"?>
<!-- Generator: Adobe Illustrator 19.0.0, SVG Export Plug-In . SVG Version: 6.00 Build 0)  -->
<svg version="1.1" id="Layer_1" xmlns="http://www.w3.org/2000/svg" width="50" height="50" x="0px" y="0px"
	 viewBox="0 0 512 512" style="enable-background:new 0 0 512 512;" xml:space="preserve">
<path style="fill:#DB2B42;" d="M256,16C123.664,16,16,123.648,16,256s107.664,240,240,240s240-107.664,240-240S388.336,16,256,16z
	 M256,274.624l-151.456,80.688L256,93.088l151.456,262.224L256,274.624z"/>
<path d="M256,0C114.848,0,0,114.832,0,256s114.848,256,256,256s256-114.848,256-256S397.152,0,256,0z M256,496
	C123.664,496,16,388.336,16,256S123.664,16,256,16s240,107.664,240,240S388.336,496,256,496z"/>
<path d="M104.544,355.312L256,274.624l151.456,80.688L256,93.088L104.544,355.312z M256,256.496l-109.648,58.4L256,125.088
	l109.648,189.808L256,256.496z"/>
<polygon style="fill:#FFFFFF;" points="146.352,314.896 256,256.496 365.648,314.896 256,125.088 "/>
<g>
</g>
<g>
</g>
<g>
</g>
<g>
</g>
<g>
</g>
<g>
</g>
<g>
</g>
<g>
</g>
<g>
</g>
<g>
</g>
<g>
</g>
<g>
</g>
<g>
</g>
<g>
</g>
<g>
</g>
</svg>
