<?xml version="1.0" encoding="iso-8859-1"?>
<!-- Generator: Adobe Illustrator 19.0.0, SVG Export Plug-In . SVG Version: 6.00 Build 0)  -->
<svg xmlns="http://www.w3.org/2000/svg"  width="50" height="50" viewBox="0 0 512 512" >
<path style="fill:#303C42;" d="M256,0C161.896,0,85.333,76.563,85.333,170.667c0,28.25,7.063,56.26,20.49,81.104L246.666,506.5  c1.875,3.396,5.448,5.5,9.334,5.5c3.885,0,7.458-2.104,9.333-5.5l140.896-254.813c13.375-24.76,20.438-52.771,20.438-81.021  C426.667,76.563,350.104,0,256,0z"/>
<path style="fill:#1E88E5;" d="M387.51,241.448L256,479.292l-131.458-237.75c-11.698-21.646-17.875-46.156-17.875-70.875  c0-82.344,66.99-149.333,149.333-149.333s149.333,66.99,149.333,149.333C405.333,195.385,399.156,219.896,387.51,241.448z"/>
<circle style="fill:#303C42;" cx="256" cy="170.667" r="117.333"/>
<path style="fill:#1E88E5;" d="M201.587,249.611c14.436-7.539,33.596-14.944,54.413-14.944c20.809,0,39.961,7.4,54.409,14.948  C294.923,260.32,276.21,266.667,256,266.667C235.788,266.667,217.073,260.319,201.587,249.611z"/>
<path style="fill:#E6E6E6;" d="M327.229,234.426c-17.077-9.841-42.693-21.092-71.229-21.092c-28.549,0-54.178,11.26-71.234,21.086  C169.542,217.424,160,195.227,160,170.667c0-52.938,43.063-96,96-96s96,43.063,96,96C352,195.23,342.456,217.43,327.229,234.426z"/>
<path style="opacity:0.1;enable-background:new    ;" d="M181.333,202.667c0-52.938,43.063-96,96-96  c26.293,0,50.12,10.658,67.475,27.837C330.488,99.465,296.133,74.667,256,74.667c-52.938,0-96,43.063-96,96  c0,26.645,10.939,50.754,28.525,68.163C183.956,227.651,181.333,215.471,181.333,202.667z"/>
<circle style="fill:#303C42;" cx="256" cy="149.333" r="53.333"/>
<circle style="fill:#1E88E5;" cx="256" cy="149.333" r="32"/>
<path style="opacity:0.1;enable-background:new    ;" d="M277.076,125.444c0.069,0.858,0.258,1.681,0.258,2.556  c0,17.646-14.354,32-32,32c-8.105,0-15.431-3.126-21.076-8.111c1.328,16.435,14.971,29.444,31.742,29.444c17.646,0,32-14.354,32-32  C288,139.793,283.719,131.311,277.076,125.444z"/>
<linearGradient id="SVGID_1_" gradientUnits="userSpaceOnUse" x1="-43.3369" y1="638.8975" x2="-28.8354" y2="632.1357" gradientTransform="matrix(21.3333 0 0 -21.3333 996.3334 13791.667)">
	<stop offset="0" style="stop-color:#FFFFFF;stop-opacity:0.2"/>
	<stop offset="1" style="stop-color:#FFFFFF;stop-opacity:0"/>
</linearGradient>
<path style="fill:url(#SVGID_1_);" d="M256,0C161.896,0,85.333,76.563,85.333,170.667c0,28.25,7.063,56.26,20.49,81.104  L246.666,506.5c1.875,3.396,5.448,5.5,9.334,5.5c3.885,0,7.458-2.104,9.333-5.5l140.896-254.813  c13.375-24.76,20.438-52.771,20.438-81.021C426.667,76.563,350.104,0,256,0z"/>
<g>
</g>
<g>
</g>
<g>
</g>
<g>
</g>
<g>
</g>
<g>
</g>
<g>
</g>
<g>
</g>
<g>
</g>
<g>
</g>
<g>
</g>
<g>
</g>
<g>
</g>
<g>
</g>
<g>
</g>
</svg>
