<?xml version="1.0" encoding="iso-8859-1"?>
<!-- Generator: Adobe Illustrator 19.0.0, SVG Export Plug-In . SVG Version: 6.00 Build 0)  -->
<svg version="1.1" id="Layer_1" xmlns="http://www.w3.org/2000/svg" width="50" height="50" x="0px" y="0px"
	 viewBox="0 0 512 512" style="enable-background:new 0 0 512 512;" xml:space="preserve">
<g>
	<path style="fill:#DB2B42;" d="M390.496,229.824l4.256-9.664c1.824-4.56,3.584-9.808,5.04-15.072
		c3.584-12.944,5.392-26.368,5.392-39.888c0-79.568-62.656-144.592-141.2-148.784v74.208H256
		c40.352,0.016,73.072,32.736,73.072,73.088c0,40.368-32.72,73.088-73.088,73.088s-73.088-32.72-73.088-73.088
		c0-40.352,32.704-73.072,73.072-73.088H248V16.4c-78.544,4.192-141.2,69.216-141.2,148.784c0,13.536,1.824,26.944,5.392,39.888
		c1.408,5.088,3.088,10.096,4.976,14.896l4.512,10.208L178.944,336H333.04L390.496,229.824z"/>
	<polygon style="fill:#DB2B42;" points="256,478.384 324.384,352 187.6,352 	"/>
</g>
<path d="M102.304,225.872l5.008,11.376L256,512l148.88-275.136l4.512-10.256c2.24-5.6,4.192-11.36,5.824-17.248
	c3.888-14.064,5.984-28.864,5.984-44.16C421.2,73.952,347.232,0,256,0S90.8,73.952,90.8,165.2c0,15.296,2.08,30.112,5.984,44.16
	C98.352,214.992,100.192,220.496,102.304,225.872z M256,478.384L187.6,352h136.784L256,478.384z M313.088,163.696
	c0,31.472-25.616,57.088-57.088,57.088s-57.088-25.616-57.088-57.088s25.616-57.088,57.088-57.088S313.088,132.224,313.088,163.696z
	 M248,16.4v74.208h7.984c-40.352,0.016-73.072,32.736-73.072,73.088c0,40.368,32.72,73.088,73.088,73.088
	s73.088-32.72,73.088-73.088c0-40.352-32.704-73.072-73.072-73.088H264V16.4c78.544,4.192,141.2,69.216,141.2,148.784
	c0,13.52-1.824,26.944-5.392,39.888c-1.456,5.264-3.232,10.512-5.04,15.072l-4.256,9.664L333.04,336H178.944l-57.248-105.792
	L117.184,220c-1.904-4.8-3.568-9.824-4.976-14.896c-3.584-12.944-5.392-26.368-5.392-39.888C106.8,85.632,169.456,20.608,248,16.4z"
	/>
<circle style="fill:#FFFFFF;" cx="256" cy="163.696" r="57.088"/>
<g>
</g>
<g>
</g>
<g>
</g>
<g>
</g>
<g>
</g>
<g>
</g>
<g>
</g>
<g>
</g>
<g>
</g>
<g>
</g>
<g>
</g>
<g>
</g>
<g>
</g>
<g>
</g>
<g>
</g>
</svg>
