<?xml version="1.0" encoding="iso-8859-1"?>
<!-- Generator: Adobe Illustrator 19.0.0, SVG Export Plug-In . SVG Version: 6.00 Build 0)  -->
<svg xmlns="http://www.w3.org/2000/svg" width="50" height="50" viewBox="0 0 512 512">
<path style="fill:#303C42;" d="M399.292,267.208c-15.747-29.813-40.315-55.432-69.275-73.206l-8.746-67.596  c25.003-19.539,41.396-49.624,41.396-83.74C362.667,13.354,307.375,0,256,0S149.333,13.354,149.333,42.667  c0,34.118,16.395,64.204,41.401,83.743l-8.772,67.612c-28.947,17.758-53.507,43.361-69.254,73.186  c-6.729,12.719-7.896,28.198-3.229,42.448c4.271,13.031,13.146,23.604,24.323,29.021c33.534,16.259,71.794,21.91,102.813,23.444  L245.354,502c0.354,5.625,5.01,10,10.646,10c5.635,0,10.292-4.375,10.646-10l8.74-139.879c31.018-1.534,69.277-7.184,102.802-23.434  c11.188-5.427,20.063-16,24.333-29.031C407.188,295.406,406.021,279.927,399.292,267.208z"/>
<path style="fill:#0288D1;" d="M256,21.333c55.99,0,85.333,15.854,85.333,21.333S311.99,64,256,64s-85.333-15.854-85.333-21.333  S200.01,21.333,256,21.333z"/>
<path style="opacity:0.2;fill:#FFFFFF;enable-background:new    ;" d="M192,53.333C192,47.854,221.344,32,277.333,32  c27.453,0,48.405,3.824,62.728,8.355c-5.987-6.66-34.568-19.022-84.061-19.022c-55.99,0-85.333,15.854-85.333,21.333  c0,2.793,7.717,8.268,22.605,12.978C192.486,54.771,192,53.969,192,53.333z"/>
<path style="fill:#0288D1;" d="M176.262,72.246c20.835,8.876,50.9,13.087,79.738,13.087c28.839,0,58.904-4.211,79.738-13.087  C323.651,104.701,292.613,128,256,128S188.349,104.701,176.262,72.246z"/>
<path style="opacity:0.1;enable-background:new    ;" d="M294.846,82.578c-10.078,23.595-28.638,40.621-50.681,44.484  C248.042,127.608,251.971,128,256,128c36.613,0,67.651-23.299,79.738-55.754C324.331,77.105,310.072,80.441,294.846,82.578z"/>
<path style="fill:#0288D1;" d="M256,149.333c16.279,0,31.543-3.956,45.359-10.505l7.37,56.922  c-6.854,5.792-24.302,17.583-52.729,17.583c-28.49,0-45.948-11.969-52.729-17.76l7.357-56.751  C224.448,145.375,239.716,149.333,256,149.333z"/>
<path style="opacity:0.1;enable-background:new    ;" d="M287.645,207.581c10.129-3.845,17.341-8.667,21.085-11.831l-7.37-56.922  c-5.607,2.658-11.508,4.751-17.563,6.464L287.645,207.581z"/>
<path style="fill:#0288D1;" d="M382.25,303.01c-2.479,7.563-7.354,13.563-13.365,16.479  c-29.063,14.083-69.156,21.844-112.885,21.844s-83.823-7.76-112.896-21.854c-6-2.906-10.875-8.906-13.354-16.469  c-2.875-8.781-2.219-18.208,1.813-25.844c13.475-25.509,35.15-48.23,59.872-63.871c10.413,8.332,31.776,21.371,64.565,21.371  c32.918,0,54.329-13.04,64.684-21.293c24.673,15.652,46.299,38.344,59.754,63.793C384.469,284.802,385.125,294.229,382.25,303.01z"/>
<path style="opacity:0.1;enable-background:new    ;" d="M380.438,277.167c-10.993-20.794-27.582-39.512-46.691-54.288  c5.5,7.148,10.59,14.538,14.707,22.326c4.031,7.635,4.688,17.063,1.813,25.844c-2.479,7.563-7.354,13.563-13.365,16.479  c-29.063,14.083-69.156,21.844-112.885,21.844c-35.871,0-68.918-5.47-95.82-15.126c0.188,2.936,0.611,5.882,1.555,8.766  c2.479,7.563,7.354,13.563,13.354,16.469c29.073,14.094,69.167,21.854,112.896,21.854s83.823-7.76,112.885-21.844  c6.01-2.917,10.885-8.917,13.365-16.479C385.125,294.229,384.469,284.802,380.438,277.167z"/>
<linearGradient id="SVGID_1_" gradientUnits="userSpaceOnUse" x1="-42.5227" y1="638.6714" x2="-27.8749" y2="631.8405" gradientTransform="matrix(21.3333 0 0 -21.3333 996.3334 13791.667)">
	<stop offset="0" style="stop-color:#FFFFFF;stop-opacity:0.2"/>
	<stop offset="1" style="stop-color:#FFFFFF;stop-opacity:0"/>
</linearGradient>
<path style="fill:url(#SVGID_1_);" d="M399.292,267.208c-15.747-29.813-40.315-55.432-69.275-73.206l-8.746-67.596  c25.003-19.539,41.396-49.624,41.396-83.74C362.667,13.354,307.375,0,256,0S149.333,13.354,149.333,42.667  c0,34.118,16.395,64.204,41.401,83.743l-8.772,67.612c-28.947,17.758-53.507,43.361-69.254,73.186  c-6.729,12.719-7.896,28.198-3.229,42.448c4.271,13.031,13.146,23.604,24.323,29.021c33.534,16.259,71.794,21.91,102.813,23.444  L245.354,502c0.354,5.625,5.01,10,10.646,10c5.635,0,10.292-4.375,10.646-10l8.74-139.879c31.018-1.534,69.277-7.184,102.802-23.434  c11.188-5.427,20.063-16,24.333-29.031C407.188,295.406,406.021,279.927,399.292,267.208z"/>
<g>
</g>
<g>
</g>
<g>
</g>
<g>
</g>
<g>
</g>
<g>
</g>
<g>
</g>
<g>
</g>
<g>
</g>
<g>
</g>
<g>
</g>
<g>
</g>
<g>
</g>
<g>
</g>
<g>
</g>
</svg>
