<?xml version="1.0" encoding="iso-8859-1"?>
<!-- Generator: Adobe Illustrator 19.0.0, SVG Export Plug-In . SVG Version: 6.00 Build 0)  -->
<svg version="1.1" id="Layer_1" xmlns="http://www.w3.org/2000/svg" width="50" height="50" x="0px" y="0px"
	 viewBox="0 0 512 512" style="enable-background:new 0 0 512 512;" xml:space="preserve">
<path style="fill:#DDDDDD;" d="M405.2,165.2C405.2,82.928,338.272,16,256,16S106.8,82.928,106.8,165.2
	c0,13.52,1.824,26.944,5.408,39.888c1.408,5.088,3.088,10.096,4.976,14.896l4.512,10.208L256,478.384l134.496-248.56l4.256-9.664
	c1.824-4.56,3.584-9.808,5.04-15.072C403.376,192.144,405.2,178.72,405.2,165.2z M256,260.416c-53.408,0-96.72-43.296-96.72-96.72
	s43.312-96.72,96.72-96.72s96.72,43.296,96.72,96.72S309.408,260.416,256,260.416z"/>
<path d="M409.392,226.608c2.24-5.6,4.192-11.36,5.824-17.248c3.888-14.064,5.984-28.864,5.984-44.16C421.2,73.952,347.232,0,256,0
	S90.8,73.952,90.8,165.2c0,15.296,2.096,30.112,5.984,44.16c1.552,5.632,3.392,11.136,5.52,16.512l5.008,11.376L256,512
	l148.88-275.136L409.392,226.608z M394.752,220.16l-4.256,9.664L256,478.384L121.696,230.208L117.184,220
	c-1.904-4.8-3.568-9.824-4.976-14.896c-3.584-12.944-5.408-26.368-5.408-39.888C106.8,82.928,173.728,16,256,16
	s149.2,66.928,149.2,149.2c0,13.52-1.824,26.944-5.408,39.888C398.336,210.352,396.576,215.584,394.752,220.16z"/>
<path d="M256,66.976c-53.408,0-96.72,43.296-96.72,96.72s43.296,96.72,96.72,96.72s96.72-43.296,96.72-96.72
	S309.408,66.976,256,66.976z M256,244.416c-44.512,0-80.72-36.208-80.72-80.72s36.208-80.72,80.72-80.72s80.72,36.208,80.72,80.72
	S300.512,244.416,256,244.416z"/>
<circle style="fill:#FFFFFF;" cx="256" cy="163.696" r="80.64"/>
<g>
</g>
<g>
</g>
<g>
</g>
<g>
</g>
<g>
</g>
<g>
</g>
<g>
</g>
<g>
</g>
<g>
</g>
<g>
</g>
<g>
</g>
<g>
</g>
<g>
</g>
<g>
</g>
<g>
</g>
</svg>
