<?xml version="1.0" encoding="iso-8859-1"?>
<!-- Generator: Adobe Illustrator 19.0.0, SVG Export Plug-In . SVG Version: 6.00 Build 0)  -->
<svg xmlns="http://www.w3.org/2000/svg" width="50" height="50" viewBox="0 0 512 512">
<path style="fill:#303C42;" d="M384,128C384,57.417,326.583,0,256,0S128,57.417,128,128c0,66.983,51.734,122.01,117.333,127.46  v245.874c0,5.896,4.771,10.667,10.667,10.667c5.896,0,10.667-4.771,10.667-10.667V255.46C332.266,250.01,384,194.983,384,128z"/>
<circle style="fill:#E53935;" cx="256" cy="128" r="106.667"/>
<path style="opacity:0.1;enable-background:new    ;" d="M329.345,50.926c0.539,4.333,1.322,8.598,1.322,13.074  c0,58.813-47.854,106.667-106.667,106.667c-28.456,0-54.199-11.366-73.345-29.592c6.534,52.598,51.009,93.592,105.345,93.592  c58.813,0,106.667-47.854,106.667-106.667C362.667,97.643,349.771,70.37,329.345,50.926z"/>
<linearGradient id="SVGID_1_" gradientUnits="userSpaceOnUse" x1="-42.33" y1="638.3237" x2="-29.7371" y2="632.4532" gradientTransform="matrix(21.3333 0 0 -21.3333 996.3334 13791.667)">
	<stop offset="0" style="stop-color:#FFFFFF;stop-opacity:0.2"/>
	<stop offset="1" style="stop-color:#FFFFFF;stop-opacity:0"/>
</linearGradient>
<path style="fill:url(#SVGID_1_);" d="M384,128C384,57.417,326.583,0,256,0S128,57.417,128,128  c0,66.983,51.734,122.01,117.333,127.46v245.874c0,5.896,4.771,10.667,10.667,10.667c5.896,0,10.667-4.771,10.667-10.667V255.46  C332.266,250.01,384,194.983,384,128z"/>
<g>
</g>
<g>
</g>
<g>
</g>
<g>
</g>
<g>
</g>
<g>
</g>
<g>
</g>
<g>
</g>
<g>
</g>
<g>
</g>
<g>
</g>
<g>
</g>
<g>
</g>
<g>
</g>
<g>
</g>
</svg>
